<mxfile host="Electron" modified="2024-04-26T02:49:43.425Z" agent="Mozilla/5.0 (X11; Linux x86_64) AppleWebKit/537.36 (KHTML, like Gecko) draw.io/23.1.5 Chrome/120.0.6099.109 Electron/28.1.0 Safari/537.36" etag="38sWmj2D2Dbo9ADACK8S" version="23.1.5" type="device">
  <diagram name="Page-1" id="FjSwBifZYLMq8m4KdaVx">
    <mxGraphModel dx="819" dy="500" grid="1" gridSize="10" guides="1" tooltips="1" connect="1" arrows="1" fold="1" page="1" pageScale="1" pageWidth="850" pageHeight="1100" math="0" shadow="0">
      <root>
        <mxCell id="0" />
        <mxCell id="1" parent="0" />
        <mxCell id="lpcZMN7IkU_HKEpInhE1-2" value="" style="rounded=1;whiteSpace=wrap;html=1;fillColor=#dae8fc;strokeColor=#6c8ebf;" vertex="1" parent="1">
          <mxGeometry x="245" y="80" width="360" height="120" as="geometry" />
        </mxCell>
        <mxCell id="lpcZMN7IkU_HKEpInhE1-3" value="TUI powered by dialog" style="text;html=1;align=center;verticalAlign=middle;whiteSpace=wrap;rounded=0;" vertex="1" parent="1">
          <mxGeometry x="330" y="80" width="190" height="30" as="geometry" />
        </mxCell>
        <mxCell id="lpcZMN7IkU_HKEpInhE1-4" value="tui_desktop" style="rounded=1;whiteSpace=wrap;html=1;fillColor=#b1ddf0;strokeColor=#10739e;" vertex="1" parent="1">
          <mxGeometry x="285" y="120" width="120" height="60" as="geometry" />
        </mxCell>
        <mxCell id="lpcZMN7IkU_HKEpInhE1-5" value="tui_server" style="rounded=1;whiteSpace=wrap;html=1;fillColor=#b1ddf0;strokeColor=#10739e;" vertex="1" parent="1">
          <mxGeometry x="445" y="120" width="120" height="60" as="geometry" />
        </mxCell>
        <mxCell id="lpcZMN7IkU_HKEpInhE1-6" value="" style="rounded=1;whiteSpace=wrap;html=1;fillColor=#fff2cc;strokeColor=#d6b656;" vertex="1" parent="1">
          <mxGeometry x="115" y="200" width="620" height="180" as="geometry" />
        </mxCell>
        <mxCell id="lpcZMN7IkU_HKEpInhE1-7" value="functions" style="text;html=1;align=center;verticalAlign=middle;whiteSpace=wrap;rounded=0;" vertex="1" parent="1">
          <mxGeometry x="395" y="200" width="60" height="30" as="geometry" />
        </mxCell>
        <mxCell id="lpcZMN7IkU_HKEpInhE1-8" value="install" style="rounded=1;whiteSpace=wrap;html=1;fillColor=#ffe6cc;strokeColor=#d79b00;" vertex="1" parent="1">
          <mxGeometry x="203" y="240" width="120" height="60" as="geometry" />
        </mxCell>
        <mxCell id="lpcZMN7IkU_HKEpInhE1-9" value="tweaks" style="rounded=1;whiteSpace=wrap;html=1;fillColor=#ffe6cc;strokeColor=#d79b00;" vertex="1" parent="1">
          <mxGeometry x="368" y="240" width="120" height="60" as="geometry" />
        </mxCell>
        <mxCell id="lpcZMN7IkU_HKEpInhE1-10" value="configuration" style="rounded=1;whiteSpace=wrap;html=1;fillColor=#ffe6cc;strokeColor=#d79b00;" vertex="1" parent="1">
          <mxGeometry x="528" y="240" width="120" height="60" as="geometry" />
        </mxCell>
      </root>
    </mxGraphModel>
  </diagram>
</mxfile>
